<svg xmlns="http://www.w3.org/2000/svg" width="64" height="64" viewBox="0 0 64 64" fill="none">
  <rect width="64" height="64" rx="16" fill="#D8FF2E"/>

  <g fill="#0E0D14" transform="rotate(-11 24 37)">
    <ellipse cx="23.5" cy="40.5" rx="9.3" ry="7.8"/>
    <path d="M29.6 38.7V17.7c0-.74.5-1.38 1.21-1.56l9.61-2.49c.99-.26 1.93.49 1.93 1.51v4.47c0 .72-.49 1.35-1.19 1.53l-8.56 2.22v15.25H29.6Z"/>
    <path d="M32.6 15.48 40.86 13.34c.82-.21 1.6.41 1.6 1.25v4.07l-9.86 2.56v-5.74Z"/>
  </g>

  <g fill="#0E0D14" transform="rotate(12 47 23)">
    <ellipse cx="46.5" cy="27" rx="6.7" ry="5.8"/>
    <path d="M51.03 25.63V11.74c0-.62.42-1.16 1.02-1.31l7.09-1.84c.9-.24 1.77.44 1.77 1.36v3.61c0 .62-.42 1.15-1.01 1.31l-5.87 1.52v9.24h-3Z"/>
    <path d="M53.71 10.04 59.8 8.46c.75-.2 1.48.37 1.48 1.14v3.02l-7.57 1.96v-4.54Z"/>
  </g>
</svg>
